<svg width="21" height="17" viewBox="0 0 21 17" fill="none" xmlns="http://www.w3.org/2000/svg">
<path d="M18.9585 7.29167H4.62766L9.01391 2.02334C9.21901 1.77658 9.31769 1.45845 9.28823 1.13893C9.25877 0.819418 9.10359 0.524692 8.85683 0.319591C8.61007 0.11449 8.29194 0.0158154 7.97242 0.0452742C7.65291 0.074733 7.35818 0.229913 7.15308 0.476674L1.11141 7.72667C1.07077 7.78434 1.03442 7.84492 1.00266 7.90792C1.00266 7.96834 1.00266 8.00459 0.91808 8.06501C0.86331 8.20355 0.834633 8.35103 0.833496 8.50001C0.834633 8.64898 0.86331 8.79646 0.91808 8.93501C0.91808 8.99542 0.918079 9.03167 1.00266 9.09209C1.03442 9.15509 1.07077 9.21567 1.11141 9.27334L7.15308 16.5233C7.26669 16.6597 7.40896 16.7694 7.56977 16.8446C7.73058 16.9198 7.90598 16.9586 8.0835 16.9583C8.36583 16.9589 8.63944 16.8606 8.85683 16.6804C8.97918 16.579 9.08032 16.4544 9.15446 16.3138C9.22859 16.1732 9.27426 16.0194 9.28885 15.8611C9.30344 15.7029 9.28667 15.5433 9.23949 15.3915C9.19231 15.2397 9.11566 15.0988 9.01391 14.9767L4.62766 9.70834H18.9585C19.279 9.70834 19.5863 9.58103 19.8129 9.35443C20.0395 9.12782 20.1668 8.82048 20.1668 8.50001C20.1668 8.17954 20.0395 7.87219 19.8129 7.64559C19.5863 7.41898 19.279 7.29167 18.9585 7.29167Z" fill="#1A1A19"/>
</svg>
