<svg width="28" height="27" viewBox="0 0 28 27" fill="none" xmlns="http://www.w3.org/2000/svg">
<path d="M4.6665 9.99999C4.6665 7.52464 5.64983 5.15067 7.40017 3.40033C9.15051 1.64999 11.5245 0.666656 13.9998 0.666656C16.4752 0.666656 18.8492 1.64999 20.5995 3.40033C22.3498 5.15067 23.3332 7.52464 23.3332 9.99999V11.38C25.5945 11.704 27.3332 13.6493 27.3332 16V16.3333C27.3332 18.7 25.2918 20.7747 22.8905 20.664C21.9038 23.4907 19.3945 25.396 16.6865 25.8787C16.0598 26.108 15.3185 26 14.6665 26C14.1361 26 13.6274 25.7893 13.2523 25.4142C12.8772 25.0391 12.6665 24.5304 12.6665 24C12.6665 23.4696 12.8772 22.9608 13.2523 22.5858C13.6274 22.2107 14.1361 22 14.6665 22C15.7238 22 16.8945 21.8467 17.6092 22.812C19.3372 21.9893 20.6665 20.252 20.6665 18V9.99999C20.6665 8.23188 19.9641 6.53619 18.7139 5.28594C17.4636 4.0357 15.7679 3.33332 13.9998 3.33332C12.2317 3.33332 10.536 4.0357 9.28579 5.28594C8.03555 6.53619 7.33317 8.23188 7.33317 9.99999V18.3333C7.33317 18.9522 7.08734 19.5457 6.64975 19.9832C6.21217 20.4208 5.61868 20.6667 4.99984 20.6667C3.85057 20.6667 2.74837 20.2101 1.93571 19.3975C1.12305 18.5848 0.666504 17.4826 0.666504 16.3333V16C0.666216 14.8776 1.07045 13.7927 1.80511 12.9442C2.53977 12.0957 3.55564 11.5403 4.6665 11.38V9.99999Z" fill="#1A1A19"/>
</svg>
