<svg width="34" height="34" viewBox="0 0 34 34" fill="none" xmlns="http://www.w3.org/2000/svg">
<path d="M20.643 14.875C20.643 14.6335 20.739 14.4019 20.9098 14.2311C21.0806 14.0603 21.3122 13.9643 21.5537 13.9643H25.8037C26.0453 13.9643 26.2769 14.0603 26.4477 14.2311C26.6185 14.4019 26.7145 14.6335 26.7145 14.875C26.7145 15.1166 26.6185 15.3482 26.4477 15.519C26.2769 15.6898 26.0453 15.7857 25.8037 15.7857H21.5537C21.3122 15.7857 21.0806 15.6898 20.9098 15.519C20.739 15.3482 20.643 15.1166 20.643 14.875ZM21.5537 18.2143C21.3122 18.2143 21.0806 18.3103 20.9098 18.4811C20.739 18.6519 20.643 18.8835 20.643 19.125C20.643 19.3666 20.739 19.5982 20.9098 19.769C21.0806 19.9398 21.3122 20.0357 21.5537 20.0357H25.8037C26.0453 20.0357 26.2769 19.9398 26.4477 19.769C26.6185 19.5982 26.7145 19.3666 26.7145 19.125C26.7145 18.8835 26.6185 18.6519 26.4477 18.4811C26.2769 18.3103 26.0453 18.2143 25.8037 18.2143H21.5537ZM18.2145 14.5715C18.2145 15.0545 18.0226 15.5178 17.681 15.8594C17.3394 16.201 16.8761 16.3929 16.393 16.3929C15.91 16.3929 15.4467 16.201 15.1051 15.8594C14.7635 15.5178 14.5716 15.0545 14.5716 14.5715C14.5716 14.0884 14.7635 13.6251 15.1051 13.2835C15.4467 12.9419 15.91 12.75 16.393 12.75C16.8761 12.75 17.3394 12.9419 17.681 13.2835C18.0226 13.6251 18.2145 14.0884 18.2145 14.5715ZM8.50017 17.6072C8.17812 17.6072 7.86926 17.7351 7.64154 17.9628C7.41381 18.1906 7.28588 18.4994 7.28588 18.8215V20.0357C7.28588 20.0357 7.28588 22.4643 10.6252 22.4643C13.9645 22.4643 13.9645 20.0357 13.9645 20.0357V18.8215C13.9645 18.4994 13.8365 18.1906 13.6088 17.9628C13.3811 17.7351 13.0722 17.6072 12.7502 17.6072H8.50017ZM12.7502 14.2679C12.7502 14.8315 12.5263 15.372 12.1278 15.7705C11.7293 16.169 11.1888 16.3929 10.6252 16.3929C10.0616 16.3929 9.52108 16.169 9.12256 15.7705C8.72405 15.372 8.50017 14.8315 8.50017 14.2679C8.50017 13.7043 8.72405 13.1638 9.12256 12.7653C9.52108 12.3668 10.0616 12.1429 10.6252 12.1429C11.1888 12.1429 11.7293 12.3668 12.1278 12.7653C12.5263 13.1638 12.7502 13.7043 12.7502 14.2679ZM16.393 21.25H14.9177C15.0462 20.9329 15.13 20.5994 15.1666 20.2592C15.1715 20.2033 15.1751 20.156 15.1763 20.1183V20.1025H15.1787V18.8215C15.1787 18.3795 15.0597 17.9642 14.8533 17.6072H17.6073C17.9294 17.6072 18.2382 17.7351 18.4659 17.9628C18.6937 18.1906 18.8216 18.4994 18.8216 18.8215C18.8216 19.4656 18.5657 20.0833 18.1103 20.5387C17.6548 20.9942 17.0371 21.25 16.393 21.25ZM2.43359 9.41075C2.43359 8.20307 2.91334 7.04485 3.7673 6.19089C4.62126 5.33693 5.77948 4.85718 6.98717 4.85718H27.018C28.2257 4.85718 29.3839 5.33693 30.2379 6.19089C31.0918 7.04485 31.5716 8.20307 31.5716 9.41075V24.5893C31.5716 25.797 31.0918 26.9552 30.2379 27.8092C29.3839 28.6631 28.2257 29.1429 27.018 29.1429H6.98838C5.7807 29.1429 4.62248 28.6631 3.76852 27.8092C2.91456 26.9552 2.43481 25.797 2.43481 24.5893V9.41075H2.43359ZM6.98717 6.67861C6.26256 6.67861 5.56762 6.96646 5.05525 7.47883C4.54287 7.99121 4.25502 8.68614 4.25502 9.41075V24.5893C4.25502 25.3139 4.54287 26.0089 5.05525 26.5212C5.56762 27.0336 6.26256 27.3215 6.98717 27.3215H27.018C27.7426 27.3215 28.4376 27.0336 28.9499 26.5212C29.4623 26.0089 29.7502 25.3139 29.7502 24.5893V9.41075C29.7502 8.68614 29.4623 7.99121 28.9499 7.47883C28.4376 6.96646 27.7426 6.67861 27.018 6.67861H6.98717Z" fill="#1A1A19"/>
</svg>
