<svg width="26" height="28" viewBox="0 0 26 28" fill="none" xmlns="http://www.w3.org/2000/svg">
<path d="M13 21.3286C13.4604 21.3286 13.8466 21.1805 14.1586 20.8842C14.4706 20.588 14.6261 20.2218 14.625 19.7857V15.1571C14.625 14.72 14.469 14.3533 14.157 14.0571C13.845 13.7609 13.4593 13.6133 13 13.6143C12.5396 13.6143 12.1534 13.7624 11.8414 14.0586C11.5294 14.3549 11.3739 14.721 11.375 15.1571V19.7857C11.375 20.2229 11.531 20.5895 11.843 20.8858C12.155 21.182 12.5407 21.3296 13 21.3286ZM13 10.5286C13.4604 10.5286 13.8466 10.3805 14.1586 10.0842C14.4706 9.788 14.6261 9.42183 14.625 8.98571C14.625 8.54857 14.469 8.18188 14.157 7.88566C13.845 7.58943 13.4593 7.44183 13 7.44286C12.5396 7.44286 12.1534 7.59097 11.8414 7.8872C11.5294 8.18343 11.3739 8.5496 11.375 8.98571C11.375 9.42286 11.531 9.78954 11.843 10.0858C12.155 10.382 12.5407 10.5296 13 10.5286ZM3.25 27.5C2.35625 27.5 1.59088 27.1976 0.953877 26.5928C0.316877 25.988 -0.00108057 25.2618 2.75891e-06 24.4143V10.5286C2.75891e-06 10.04 0.115377 9.57714 0.346127 9.14C0.576877 8.70286 0.894836 8.34286 1.3 8.06L11.05 1.11714C11.6187 0.705714 12.2687 0.5 13 0.5C13.7312 0.5 14.3812 0.705714 14.95 1.11714L24.7 8.06C25.1062 8.34286 25.4247 8.70286 25.6555 9.14C25.8862 9.57714 26.0011 10.04 26 10.5286V24.4143C26 25.2629 25.6815 25.9895 25.0445 26.5943C24.4075 27.1991 23.6427 27.501 22.75 27.5H3.25ZM3.25 24.4143H22.75V10.5286L13 3.58571L3.25 10.5286V24.4143Z" fill="#1A1A19"/>
</svg>
