<svg width="16" height="10" viewBox="0 0 16 10" fill="none" xmlns="http://www.w3.org/2000/svg">
<path d="M1.14076 0.899703C1.26721 0.772999 1.4174 0.672476 1.58274 0.60389C1.74808 0.535304 1.92533 0.5 2.10433 0.5C2.28334 0.5 2.46058 0.535304 2.62592 0.60389C2.79127 0.672476 2.94146 0.772999 3.0679 0.899703L8.37095 6.20275L13.674 0.899703C13.9296 0.644148 14.2762 0.500579 14.6376 0.500579C14.999 0.500579 15.3456 0.644148 15.6011 0.899703C15.8567 1.15526 16.0003 1.50186 16.0003 1.86327C16.0003 2.22468 15.8567 2.57129 15.6011 2.82684L9.32769 9.1003C9.20125 9.227 9.05105 9.32753 8.88571 9.39611C8.72037 9.4647 8.54312 9.5 8.36412 9.5C8.18512 9.5 8.00787 9.4647 7.84253 9.39611C7.67719 9.32753 7.527 9.227 7.40055 9.1003L1.12709 2.82684C0.607723 2.30747 0.607723 1.43274 1.14076 0.899703Z" fill="#A1A1A1"/>
</svg>
