<svg width="9" height="16" viewBox="0 0 9 16" fill="none" xmlns="http://www.w3.org/2000/svg">
<path d="M0.399703 0.894637C0.272999 1.01892 0.172476 1.16654 0.10389 1.32906C0.0353038 1.49157 0 1.66579 0 1.84173C0 2.01767 0.0353038 2.19188 0.10389 2.3544C0.172476 2.51691 0.272999 2.66454 0.399703 2.78882L5.70275 8.00117L0.399703 13.2135C0.144148 13.4647 0.000578732 13.8054 0.000578732 14.1606C0.000578732 14.5158 0.144148 14.8565 0.399703 15.1077C0.655257 15.3589 1.00186 15.5 1.36327 15.5C1.72468 15.5 2.07129 15.3589 2.32684 15.1077L8.6003 8.94154C8.727 8.81726 8.82753 8.66964 8.89611 8.50712C8.9647 8.34461 9 8.17039 9 7.99445C9 7.81851 8.9647 7.6443 8.89611 7.48178C8.82753 7.31927 8.727 7.17165 8.6003 7.04736L2.32684 0.881203C1.80747 0.370715 0.932742 0.370715 0.399703 0.894637Z" fill="#1A1A19"/>
</svg>
