<svg width="32" height="32" viewBox="0 0 32 32" fill="none" xmlns="http://www.w3.org/2000/svg">
<g clip-path="url(#clip0_199_1056)">
<path d="M6.6665 12C6.6665 9.52464 7.64983 7.15067 9.40017 5.40033C11.1505 3.64999 13.5245 2.66666 15.9998 2.66666C18.4752 2.66666 20.8492 3.64999 22.5995 5.40033C24.3498 7.15067 25.3332 9.52464 25.3332 12V13.38C27.5945 13.704 29.3332 15.6493 29.3332 18V18.3333C29.3332 20.7 27.2918 22.7747 24.8905 22.664C23.9038 25.4907 21.3945 27.396 18.6865 27.8787C18.0598 28.108 17.3185 28 16.6665 28C16.1361 28 15.6274 27.7893 15.2523 27.4142C14.8772 27.0391 14.6665 26.5304 14.6665 26C14.6665 25.4696 14.8772 24.9608 15.2523 24.5858C15.6274 24.2107 16.1361 24 16.6665 24C17.7238 24 18.8945 23.8467 19.6092 24.812C21.3372 23.9893 22.6665 22.252 22.6665 20V12C22.6665 10.2319 21.9641 8.53619 20.7139 7.28594C19.4636 6.0357 17.7679 5.33332 15.9998 5.33332C14.2317 5.33332 12.536 6.0357 11.2858 7.28594C10.0355 8.53619 9.33317 10.2319 9.33317 12V20.3333C9.33317 20.9522 9.08734 21.5457 8.64975 21.9832C8.21217 22.4208 7.61868 22.6667 6.99984 22.6667C5.85057 22.6667 4.74837 22.2101 3.93571 21.3975C3.12305 20.5848 2.6665 19.4826 2.6665 18.3333V18C2.66622 16.8776 3.07045 15.7927 3.80511 14.9442C4.53977 14.0957 5.55564 13.5403 6.6665 13.38V12Z" fill="#1A1A19"/>
</g>
<defs>
<clipPath id="clip0_199_1056">
<rect width="32" height="32" fill="white"/>
</clipPath>
</defs>
</svg>
